<svg xmlns="http://www.w3.org/2000/svg" width="208" height="308" viewBox="0 0 208 308" fill="none"><style>.a{fill:white;}</style><g filter="url(#filter0_d)"><path d="M170.7 0H37.3C18.9 0 4 14.9 4 33.3V266.7C4 285.1 18.9 300 37.3 300H170.7C189.1 300 204 285.1 204 266.7V33.3C204 14.9 189.1 0 170.7 0Z" class="a"/><path d="M170.7 16.7H37.3C28.1 16.7 20.7 24.1 20.7 33.3L20.7 266.7C20.7 275.9 28.1 283.3 37.3 283.3H170.7C179.9 283.3 187.3 275.9 187.3 266.7V33.3C187.3 24.1 179.9 16.7 170.7 16.7Z" fill="#1A1712"/><path d="M154 66.7C80.4 66.7 20.7 126.4 20.7 200 20.7 218.4 35.6 233.3 54 233.3 127.6 233.3 187.3 173.6 187.3 100 187.3 81.6 172.4 66.7 154 66.7Z" class="a"/><path d="M154 66.7C98.1 66.7 50.2 101.2 30.5 150 24.2 165.5 20.7 182.3 20.7 200 20.7 218.4 35.6 233.3 54 233.3 109.9 233.3 157.8 198.8 177.5 150 183.8 134.5 187.3 117.7 187.3 100 187.3 81.6 172.4 66.7 154 66.7Z" style="stroke-width:4;stroke:white"/></g><defs><filter width="208" height="308" filterUnits="userSpaceOnUse" color-interpolation-filters="sRGB"><feFlood flood-opacity="0" result="BackgroundImageFix"/><feColorMatrix in="SourceAlpha" type="matrix" values="0 0 0 0 0 0 0 0 0 0 0 0 0 0 0 0 0 0 127 0"/><feOffset dy="4"/><feGaussianBlur stdDeviation="2"/><feColorMatrix type="matrix" values="0 0 0 0 0 0 0 0 0 0 0 0 0 0 0 0 0 0 0.25 0"/><feBlend mode="normal" in2="BackgroundImageFix" result="effect1_dropShadow"/><feBlend mode="normal" in="SourceGraphic" in2="effect1_dropShadow" result="shape"/></filter></defs></svg>
